<mxfile host="app.diagrams.net" modified="2023-12-31T17:40:50.929Z" agent="Mozilla/5.0 (Windows NT 10.0; Win64; x64) AppleWebKit/537.36 (KHTML, like Gecko) Chrome/120.0.0.0 Safari/537.36" version="22.1.16" etag="qxHz-gI-GZQvf2O8uVLY" type="github">
  <diagram name="第 1 页" id="1CVQ6vVY-mzPj8UpNH1l">
    <mxGraphModel>
      <root>
        <mxCell id="0" />
        <mxCell id="1" parent="0" />
      </root>
    </mxGraphModel>
  </diagram>
</mxfile>
